<svg id="visual" viewBox="0 0 960 540" width="960" height="540" xmlns="http://www.w3.org/2000/svg" xmlns:xlink="http://www.w3.org/1999/xlink" version="1.1"><g fill="#72bf90"><circle r="34" cx="108" cy="138"></circle><circle r="3" cx="369" cy="418"></circle><circle r="21" cx="870" cy="104"></circle><circle r="2" cx="359" cy="232"></circle><circle r="11" cx="268" cy="425"></circle><circle r="22" cx="706" cy="278"></circle><circle r="5" cx="237" cy="221"></circle><circle r="8" cx="884" cy="408"></circle><circle r="6" cx="329" cy="336"></circle><circle r="10" cx="814" cy="17"></circle><circle r="8" cx="519" cy="177"></circle><circle r="7" cx="743" cy="510"></circle><circle r="25" cx="558" cy="491"></circle><circle r="25" cx="821" cy="490"></circle><circle r="16" cx="221" cy="532"></circle><circle r="8" cx="818" cy="313"></circle><circle r="20" cx="3" cy="187"></circle><circle r="29" cx="159" cy="491"></circle><circle r="26" cx="61" cy="362"></circle><circle r="27" cx="38" cy="113"></circle><circle r="25" cx="658" cy="532"></circle><circle r="19" cx="803" cy="385"></circle><circle r="30" cx="684" cy="90"></circle><circle r="26" cx="751" cy="139"></circle></g></svg>